<svg width="127" height="46" viewBox="0 0 127 46" fill="none" xmlns="http://www.w3.org/2000/svg">
<path d="M3.4375 32C2.91667 32 2.65625 31.7135 2.65625 31.1406V10.4531C2.65625 9.88021 2.91667 9.59375 3.4375 9.59375H4.875C5.39583 9.59375 5.65625 9.88021 5.65625 10.4531V19.0625H16.5625V10.4531C16.5625 9.88021 16.8229 9.59375 17.3438 9.59375H18.7812C19.3021 9.59375 19.5625 9.88021 19.5625 10.4531V31.1406C19.5625 31.7135 19.3021 32 18.7812 32H17.3438C16.8229 32 16.5625 31.7135 16.5625 31.1406V21.625H5.65625V31.1406C5.65625 31.7135 5.39583 32 4.875 32H3.4375ZM23.5469 23.7969C23.5469 21.2135 24.1927 19.1562 25.4844 17.625C26.776 16.0938 28.625 15.3281 31.0312 15.3281C33.0312 15.3281 34.6875 16.0312 36 17.4375C37.3229 18.8333 37.9844 21.0677 37.9844 24.1406C37.9844 24.6094 37.7708 24.8438 37.3438 24.8438H26.4531C26.6302 26.8542 27.1719 28.2552 28.0781 29.0469C28.9844 29.8281 30.0104 30.2188 31.1562 30.2188C32.3646 30.2188 33.2917 30.0156 33.9375 29.6094C34.5833 29.2031 35.0573 28.8021 35.3594 28.4062C35.6927 27.9688 36.0156 27.8854 36.3281 28.1562L37.25 28.9531C37.4896 29.1615 37.4896 29.4479 37.25 29.8125C37.0521 30.1146 36.4844 30.599 35.5469 31.2656C34.6198 31.9323 33.1562 32.2656 31.1562 32.2656C28.5521 32.2656 26.6302 31.5 25.3906 29.9688C24.1615 28.4375 23.5469 26.3802 23.5469 23.7969ZM26.3906 22.8125H35.2188C35.1771 21.3542 34.8021 20.0781 34.0938 18.9844C33.3854 17.8802 32.3438 17.3281 30.9688 17.3281C29.7604 17.3281 28.7344 17.7344 27.8906 18.5469C27.0469 19.349 26.5469 20.7708 26.3906 22.8125ZM40.3438 16.3594C40.1667 15.849 40.3073 15.5938 40.7656 15.5938H42.4688C42.8021 15.5938 43.0365 15.7969 43.1719 16.2031L46.4844 26.5156C46.7552 27.3594 46.9375 27.9427 47.0312 28.2656C47.1354 28.5781 47.2292 28.9688 47.3125 29.4375H47.375C47.4583 28.9688 47.5469 28.5781 47.6406 28.2656C47.7448 27.9427 47.9323 27.3594 48.2031 26.5156L51.5156 16.2031C51.651 15.7969 51.8854 15.5938 52.2188 15.5938H53.9219C54.3802 15.5938 54.5208 15.849 54.3438 16.3594L49.2188 31.0469C49 31.6823 48.7188 32 48.375 32H46.3125C45.9688 32 45.6875 31.6823 45.4688 31.0469L40.3438 16.3594ZM56.1094 27.625C56.1094 25.7708 56.974 24.4115 58.7031 23.5469C60.4427 22.6823 63.0365 22.1771 66.4844 22.0312V20.9688C66.4844 19.9896 66.2604 19.1458 65.8125 18.4375C65.375 17.7188 64.5 17.3594 63.1875 17.3594C62.3542 17.3594 61.6875 17.4427 61.1875 17.6094C60.6875 17.7656 60.2292 17.9792 59.8125 18.25C59.4062 18.5104 59.0156 18.849 58.6406 19.2656C58.3594 19.5781 58.0938 19.5938 57.8438 19.3125L57.0312 18.375C56.8021 18.1146 56.8802 17.8021 57.2656 17.4375C57.8177 16.9167 58.3542 16.526 58.875 16.2656C59.3958 16.0052 60.0417 15.7865 60.8125 15.6094C61.5938 15.4219 62.3854 15.3281 63.1875 15.3281C65.3646 15.3281 66.9167 15.8906 67.8438 17.0156C68.7708 18.1302 69.2344 19.6615 69.2344 21.6094V31.2969C69.2344 31.7656 69 32 68.5312 32H67.125C66.7188 32 66.5156 31.7656 66.5156 31.2969V30.5312H66.4844C65.6615 31.1771 64.8542 31.6302 64.0625 31.8906C63.2812 32.1406 62.4062 32.2656 61.4375 32.2656C59.7292 32.2656 58.4115 31.8594 57.4844 31.0469C56.5677 30.224 56.1094 29.0833 56.1094 27.625ZM58.9531 27.6875C58.9531 28.3333 59.0885 28.8542 59.3594 29.25C59.6302 29.6354 60.0052 29.8854 60.4844 30C60.9635 30.1042 61.4635 30.1562 61.9844 30.1562C62.7865 30.1562 63.5469 30.0781 64.2656 29.9219C64.9844 29.7656 65.724 29.3542 66.4844 28.6875V24.0781C64.3802 24.2344 62.8802 24.4271 61.9844 24.6562C61.0885 24.875 60.3594 25.2604 59.7969 25.8125C59.2344 26.3542 58.9531 26.9792 58.9531 27.6875ZM73.0469 30.4688C72.724 30.1667 72.6562 29.8854 72.8438 29.625L73.5469 28.6406C73.776 28.3281 74.1146 28.3438 74.5625 28.6875C75.1771 29.1562 75.8594 29.5312 76.6094 29.8125C77.3698 30.0938 78.2344 30.2344 79.2031 30.2344C79.776 30.2344 80.2865 30.1667 80.7344 30.0312C81.1823 29.8854 81.5729 29.6198 81.9062 29.2344C82.25 28.849 82.4219 28.3333 82.4219 27.6875C82.4219 27.3125 82.3385 26.9583 82.1719 26.625C82.0156 26.2917 81.7656 26.026 81.4219 25.8281C81.0885 25.6198 80.7604 25.4583 80.4375 25.3438C79.9062 25.1458 79.375 24.9844 78.8438 24.8594C78.3229 24.724 77.6354 24.5208 76.7812 24.25C76.2083 24.0729 75.6667 23.8229 75.1562 23.5C74.6458 23.1667 74.1979 22.7188 73.8125 22.1562C73.4375 21.5938 73.25 20.8177 73.25 19.8281C73.25 18.8177 73.5573 17.9479 74.1719 17.2188C74.7865 16.4896 75.5573 15.9948 76.4844 15.7344C77.4115 15.4635 78.3125 15.3281 79.1875 15.3281C80.4792 15.3281 81.5156 15.4792 82.2969 15.7812C83.0885 16.0729 83.7708 16.4219 84.3438 16.8281C84.6771 17.0677 84.724 17.3438 84.4844 17.6562L83.7812 18.5938C83.5625 18.8958 83.224 18.8854 82.7656 18.5625C82.3802 18.2917 81.8333 18.0365 81.125 17.7969C80.4167 17.5573 79.7969 17.4375 79.2656 17.4375C78.6094 17.4375 78.0469 17.5104 77.5781 17.6562C77.1094 17.8021 76.7292 18.0521 76.4375 18.4062C76.1458 18.7604 76 19.1771 76 19.6562C76 20.0208 76.0573 20.349 76.1719 20.6406C76.2865 20.9219 76.5 21.1823 76.8125 21.4219C77.125 21.6615 77.5625 21.8542 78.125 22C79 22.2292 79.7969 22.4375 80.5156 22.625C81.2448 22.8125 81.901 23.0417 82.4844 23.3125C83.2448 23.6667 83.8281 24.0573 84.2344 24.4844C84.651 24.9115 84.9375 25.375 85.0938 25.875C85.25 26.3646 85.3281 26.9115 85.3281 27.5156C85.3281 28.6302 84.9948 29.5729 84.3281 30.3438C83.6719 31.1146 82.9375 31.6302 82.125 31.8906C81.3125 32.1406 80.3333 32.2656 79.1875 32.2656C77.6354 32.2656 76.3021 32.0469 75.1875 31.6094C74.0833 31.1615 73.3698 30.7812 73.0469 30.4688Z" fill="black"/>
<path d="M105.406 17.6562C104.938 17.6562 104.703 17.474 104.703 17.1094V16.1406C104.703 15.776 104.938 15.5938 105.406 15.5938H107.078V13.2656C107.078 11.526 107.547 10.3281 108.484 9.67188C109.422 9.00521 110.495 8.67188 111.703 8.67188C112.422 8.67188 113 8.70833 113.438 8.78125C113.885 8.85417 114.411 9.01562 115.016 9.26562C115.245 9.35938 115.312 9.52604 115.219 9.76562L114.734 11C114.651 11.2083 114.469 11.25 114.188 11.125C113.958 11.0208 113.677 10.9271 113.344 10.8438C113.01 10.75 112.651 10.7031 112.266 10.7031C111.401 10.7031 110.776 10.9115 110.391 11.3281C110.016 11.7448 109.828 12.5417 109.828 13.7188V15.5938H112.688C113.156 15.5938 113.391 15.776 113.391 16.1406V17.1094C113.391 17.474 113.156 17.6562 112.688 17.6562H109.828V31.2969C109.828 31.7656 109.594 32 109.125 32H107.781C107.312 32 107.078 31.7656 107.078 31.2969V17.6562H105.406ZM115.609 17.6562C115.141 17.6562 114.906 17.474 114.906 17.1094V16.1406C114.906 15.776 115.141 15.5938 115.609 15.5938H117.453V14.1875C117.453 13.9792 117.505 13.7812 117.609 13.5938L118.703 11.6094C118.901 11.2448 119.062 11.0625 119.188 11.0625H119.734C120.047 11.0625 120.203 11.2448 120.203 11.6094V15.5938H123.531C124 15.5938 124.234 15.776 124.234 16.1406V17.1094C124.234 17.474 124 17.6562 123.531 17.6562H120.203V27.6094C120.203 28.7031 120.365 29.4167 120.688 29.75C121.021 30.0729 121.417 30.2344 121.875 30.2344C122.229 30.2344 122.651 30.1302 123.141 29.9219C123.641 29.7135 123.984 29.5365 124.172 29.3906C124.359 29.2448 124.505 29.2917 124.609 29.5312L125.125 30.7344C125.208 30.9427 125.146 31.1094 124.938 31.2344C124.531 31.474 123.938 31.7083 123.156 31.9375C122.375 32.1562 121.594 32.2656 120.812 32.2656C119.729 32.2656 118.896 31.875 118.312 31.0938C117.74 30.3125 117.453 29.2083 117.453 27.7812V17.6562H115.609Z" fill="black"/>
<circle cx="96.353" cy="24.1962" r="7.86869" fill="black"/>
<circle cx="96.0436" cy="23.7411" r="7.70303" fill="white"/>
</svg>
